<?xml version="1.0" encoding="UTF-8" standalone="no"?>
<!-- Created with Inkscape (http://www.inkscape.org/) -->

<svg
   width="1080"
   height="1350"
   viewBox="0 0 285.75 357.18749"
   version="1.1"
   id="svg1119"
   inkscape:export-filename="RL.png"
   inkscape:export-xdpi="96"
   inkscape:export-ydpi="96"
   inkscape:version="1.2.2 (732a01da63, 2022-12-09, custom)"
   sodipodi:docname="logo.svg"
   xmlns:inkscape="http://www.inkscape.org/namespaces/inkscape"
   xmlns:sodipodi="http://sodipodi.sourceforge.net/DTD/sodipodi-0.dtd"
   xmlns="http://www.w3.org/2000/svg"
   xmlns:svg="http://www.w3.org/2000/svg">
  <sodipodi:namedview
     id="namedview1121"
     pagecolor="#ffffff"
     bordercolor="#999999"
     borderopacity="1"
     inkscape:showpageshadow="0"
     inkscape:pageopacity="0"
     inkscape:pagecheckerboard="0"
     inkscape:deskcolor="#d1d1d1"
     inkscape:document-units="px"
     showgrid="false"
     inkscape:zoom="0.5"
     inkscape:cx="556"
     inkscape:cy="739"
     inkscape:window-width="1920"
     inkscape:window-height="1016"
     inkscape:window-x="0"
     inkscape:window-y="27"
     inkscape:window-maximized="1"
     inkscape:current-layer="layer4" />
  <defs
     id="defs1116">
    <rect
       x="401.88098"
       y="484.94501"
       width="542.84412"
       height="657.71795"
       id="rect15341" />
    <rect
       x="663.74634"
       y="399.16945"
       width="59.637745"
       height="122.71056"
       id="rect15015" />
    <rect
       x="394.3844"
       y="446.92934"
       width="112.37044"
       height="117.20825"
       id="rect14181" />
    <inkscape:path-effect
       effect="copy_rotate"
       starting_point="158.11646,246.77876"
       origin="142.62746,246.77876"
       id="path-effect13999"
       is_visible="true"
       lpeversion="1.2"
       lpesatellites=""
       method="normal"
       num_copies="21"
       starting_angle="0"
       rotation_angle="17.142857"
       gap="-0.01"
       copies_to_360="true"
       mirror_copies="false"
       split_items="false"
       link_styles="false" />
    <inkscape:path-effect
       effect="mirror_symmetry"
       start_point="143.70744,48.713196"
       end_point="143.70744,75.007879"
       center_point="143.70744,61.860538"
       id="path-effect13997"
       is_visible="true"
       lpeversion="1.2"
       lpesatellites=""
       mode="free"
       discard_orig_path="false"
       fuse_paths="false"
       oposite_fuse="false"
       split_items="false"
       split_open="false"
       link_styles="false" />
    <inkscape:path-effect
       effect="copy_rotate"
       starting_point="158.14744,245.86845"
       origin="142.65844,245.86845"
       id="path-effect13995"
       is_visible="true"
       lpeversion="1.2"
       lpesatellites=""
       method="normal"
       num_copies="6"
       starting_angle="0"
       rotation_angle="60"
       gap="-0.01"
       copies_to_360="false"
       mirror_copies="false"
       split_items="false"
       link_styles="false" />
    <inkscape:path-effect
       effect="copy_rotate"
       starting_point="158.11646,177.79567"
       origin="142.62746,177.79567"
       id="path-effect13993"
       is_visible="true"
       lpeversion="1.2"
       lpesatellites=""
       method="normal"
       num_copies="20"
       starting_angle="0"
       rotation_angle="18"
       gap="-0.01"
       copies_to_360="true"
       mirror_copies="false"
       split_items="false"
       link_styles="false" />
    <inkscape:path-effect
       effect="gears"
       id="path-effect13991"
       is_visible="true"
       lpeversion="1"
       teeth="10"
       phi="5"
       min_radius="5" />
    <inkscape:path-effect
       effect="mirror_symmetry"
       start_point="143.70744,48.713196"
       end_point="143.70744,75.007879"
       center_point="143.70744,61.860538"
       id="path-effect13989"
       is_visible="true"
       lpeversion="1.2"
       lpesatellites=""
       mode="free"
       discard_orig_path="false"
       fuse_paths="false"
       oposite_fuse="false"
       split_items="false"
       split_open="false"
       link_styles="false" />
    <inkscape:path-effect
       effect="mirror_symmetry"
       start_point="153.97014,50.858225"
       end_point="153.97014,74.576509"
       center_point="153.97014,62.717367"
       id="path-effect13984"
       is_visible="true"
       lpeversion="1.2"
       lpesatellites=""
       mode="free"
       discard_orig_path="false"
       fuse_paths="false"
       oposite_fuse="false"
       split_items="false"
       split_open="false"
       link_styles="false" />
    <rect
       x="495.71509"
       y="770.94696"
       width="174.14624"
       height="116.61719"
       id="rect13923" />
    <rect
       x="419.76758"
       y="743.21204"
       width="115.03724"
       height="131.39014"
       id="rect13867" />
    <inkscape:path-effect
       effect="copy_rotate"
       starting_point="144.69601,177.35214"
       origin="143.70744,177.35214"
       id="path-effect5536"
       is_visible="true"
       lpeversion="1.2"
       lpesatellites=""
       method="normal"
       num_copies="12"
       starting_angle="0"
       rotation_angle="30"
       gap="-0.01"
       copies_to_360="true"
       mirror_copies="false"
       split_items="false"
       link_styles="false" />
    <inkscape:path-effect
       effect="copy_rotate"
       starting_point="144.69601,177.35214"
       origin="143.70744,177.35214"
       id="path-effect5536-5"
       is_visible="false"
       lpeversion="1.2"
       lpesatellites=""
       method="normal"
       num_copies="12"
       starting_angle="0"
       rotation_angle="30"
       gap="-0.01"
       copies_to_360="true"
       mirror_copies="false"
       split_items="false"
       link_styles="false" />
    <rect
       x="663.74634"
       y="399.16946"
       width="59.637745"
       height="122.71056"
       id="rect15015-9" />
    <rect
       x="663.74634"
       y="399.16946"
       width="59.637745"
       height="122.71056"
       id="rect15015-9-3" />
    <rect
       x="663.74634"
       y="399.16946"
       width="59.637745"
       height="122.71056"
       id="rect15015-9-3-5" />
    <rect
       x="663.74634"
       y="399.16946"
       width="59.637745"
       height="122.71056"
       id="rect15015-9-1" />
    <rect
       x="663.74634"
       y="399.16946"
       width="59.637745"
       height="122.71056"
       id="rect15015-9-5" />
    <rect
       x="663.74634"
       y="399.16946"
       width="59.637745"
       height="122.71056"
       id="rect15015-9-8" />
    <rect
       x="663.74634"
       y="399.16946"
       width="59.637745"
       height="122.71056"
       id="rect15015-9-81" />
    <rect
       x="663.74634"
       y="399.16946"
       width="59.637745"
       height="122.71056"
       id="rect15015-9-30" />
    <rect
       x="663.74634"
       y="399.16946"
       width="59.637745"
       height="122.71056"
       id="rect15015-9-4" />
    <rect
       x="663.74634"
       y="399.16946"
       width="101.01998"
       height="108.43174"
       id="rect15015-9-6" />
    <rect
       x="663.74634"
       y="399.16946"
       width="111.63677"
       height="128.91717"
       id="rect15015-9-17" />
    <rect
       x="401.88098"
       y="484.94501"
       width="542.84412"
       height="657.71795"
       id="rect20775" />
    <rect
       x="401.88098"
       y="484.94501"
       width="542.84412"
       height="657.71796"
       id="rect15341-4" />
  </defs>
  <g
     inkscape:label="Layer 1"
     inkscape:groupmode="layer"
     id="layer1"
     sodipodi:insensitive="true">
    <rect
       style="fill:#000000;stroke-width:0.715963;stop-color:#000000"
       id="rect1240"
       width="300.39767"
       height="371.63727"
       x="-8.449872"
       y="-8.6538725"
       ry="2.2127421" />
  </g>
  <g
     inkscape:groupmode="layer"
     id="layer4"
     inkscape:label="Layer 2"
     style="fill:#ffff00">
    <circle
       style="fill:none;stroke:#ffe40e;stroke-width:0.895369;stroke-dasharray:none;stroke-opacity:1;stop-color:#000000;fill-opacity:1"
       id="path1713"
       cx="143.70744"
       cy="177.35214"
       r="102.34426" />
    <circle
       style="fill:none;stroke:#ffe40e;stroke-width:0.769665;stroke-dasharray:none;stroke-opacity:1;stop-color:#000000;fill-opacity:1"
       id="circle3235"
       cx="143.70744"
       cy="177.35214"
       r="87.975761" />
    <path
       style="fill:#f5cb39;stroke:#ffe40e;stroke-width:0.716;stroke-dasharray:none;stroke-opacity:1;stop-color:#000000;fill-opacity:1"
       d="m 144.75644,74.56435 v 15.153772 m -51.534434,-1.907319 7.576884,13.123547 m -45.583787,24.11543 13.123551,7.57689 M 40.91965,176.30314 h 15.153772 m -1.907319,51.53443 13.123551,-7.57688 m 24.11543,45.58379 7.576886,-13.12355 m 43.67647,27.419 v -15.15377 m 51.53443,1.90732 -7.57688,-13.12355 m 45.58379,-24.11543 -13.12355,-7.57689 m 27.419,-43.67647 h -15.15377 m 1.90732,-51.53443 -13.12355,7.57688 M 196.0098,88.859803 188.43291,101.98335"
       id="path4808"
       inkscape:path-effect="#path-effect5536"
       inkscape:original-d="M 144.75644,74.56435 V 89.718122"
       class="UnoptimicedTransforms" />
    <path
       style="fill:#f5cb39;stroke:#ffe40e;stroke-width:4.56485619;stroke-dasharray:none;stroke-opacity:1;stop-color:#000000;fill-opacity:1"
       d="m 144.75644,74.564351 v 15.15377"
       id="path4808-6" />
    <path
       style="fill:#f5cb39;stroke:#ffe40e;stroke-width:4.56485619;stroke-dasharray:none;stroke-opacity:1;stop-color:#000000;fill-opacity:1"
       d="m 142.65844,264.98616 v 15.15377"
       id="path4808-6-2" />
    <path
       style="fill:#f5cb39;stroke:#ffe40e;stroke-width:4.56485619;stroke-dasharray:none;stroke-opacity:1;stop-color:#000000;fill-opacity:1"
       d="M 246.49523,178.40115 H 231.34146"
       id="path4808-6-2-9" />
    <path
       style="fill:#f5cb39;stroke:#ffe40e;stroke-width:4.56485619;stroke-dasharray:none;stroke-opacity:1;stop-color:#000000;fill-opacity:1"
       d="M 56.073421,176.30314 H 40.919651"
       id="path4808-6-2-9-1" />
    <path
       style="fill:none;stroke:#ffe40e;stroke-width:1.416;stroke-opacity:1;stop-color:#000000;fill-opacity:1"
       inkscape:path-effect="#path-effect13997;#path-effect13999"
       inkscape:original-d="m 128.21844,75.007879 7.28271,-26.294683 h 8.20629"
       transform="matrix(0.5939929,0,0,0.5983932,58.533014,30.008397)"
       d="m 128.21844,75.007879 7.28271,-26.294683 h 8.20629 m 15.489,26.294683 -7.28271,-26.294683 h -8.20629 M 78.228236,86.88631 77.436902,59.61321 85.27861,57.194364 M 107.82997,77.755385 93.120317,54.775517 85.27861,57.194364 M 33.960186,112.97189 25.165121,87.143705 31.945476,82.520937 m 27.609935,13.000422 -20.82958,-17.62319 -6.780355,4.622768 M -0.65229956,150.94679 -16.669615,128.85847 l 5.116538,-6.41593 m 30.215245,4.28468 -25.0987069,-10.70062 -5.1165381,6.41594 m -10.980673,74.99425 -21.816357,-16.38581 2.998094,-7.63902 m 30.135797,-4.81178 -27.137703,-2.82724 -2.998094,7.63902 m 11.612111,74.89908 -25.67692,-9.22735 0.613256,-8.18335 m 27.378653,-13.48068 -26.765396,5.29734 -0.613257,8.18334 m 33.173108,68.14879 -27.255976,-1.249 -1.826071,-8.00054 m 22.188794,-20.95177 -24.014865,12.95123 1.826071,8.00054 m 51.7865284,55.34319 -26.4132184,6.84033 -4.103145,-7.10686 m 15.027363,-26.56121 -19.130508,19.45436 4.103145,7.10685 m 65.798489,37.6201 -23.223531,14.32186 -6.0156363,-5.58169 m 6.5306863,-29.81056 -12.5463225,24.22886 6.0156362,5.5817 m 73.9639643,16.5543 -17.97033,20.53084 -7.393612,-3.56058 m -2.546271,-30.41111 -4.847341,26.85054 7.393612,3.56057 m 75.557416,-5.98242 -11.12039,24.91556 -8.11463,-1.22309 m -11.39698,-28.30951 3.28235,27.08643 8.11463,1.22308 m 70.43726,-27.98758 -3.28234,27.08642 -8.11464,1.22309 m -19.23502,-23.69248 11.12039,24.91556 8.11463,-1.22308 m 59.05845,-47.50592 4.84734,26.85054 -7.39361,3.56057 m -25.36394,-16.97026 17.97033,20.53084 7.39361,-3.56058 m 42.43203,-62.80315 12.54632,24.22887 -6.01563,5.5817 m -29.23917,-8.74018 23.22353,14.32187 6.01564,-5.58169 m 22.03534,-72.52005 19.13051,19.45436 -4.10315,7.10685 m -30.51636,0.26653 26.41322,6.84033 4.10314,-7.10686 m -0.31929,-75.79321 24.01487,12.95124 -1.82607,8.00054 m -29.08205,9.24954 27.25598,-1.249 1.82607,-8.00054 m -22.64554,-72.33182 26.76539,5.29734 0.61326,8.18334 m -25.06366,17.4107 25.67692,-9.22735 -0.61326,-8.18335 m -42.95964,-62.44343 27.1377,-2.82724 2.9981,7.63902 m -18.81827,24.02483 21.81636,-16.38581 -2.99809,-7.63902 m -59.45659,-47.00667 25.0987,-10.70061 5.11654,6.41593 m -10.90078,28.50426 16.01732,-22.08832 -5.11654,-6.41594 m -70.67056,-27.393152 20.82958,-17.62319 6.78036,4.622768 m -2.01471,30.450954 8.79506,-25.828187 -6.78035,-4.622767 m -75.60514,-5.345642 14.70965,-22.979867 7.84171,2.418846 m 7.05037,29.691947 0.79134,-27.273101 -7.84171,-2.418846"
       id="rect13986"
       class="UnoptimicedTransforms"
       sodipodi:nodetypes="ccc" />
    <text
       xml:space="preserve"
       transform="matrix(0.47902202,0,0,0.48203455,-97.396902,-168.88112)"
       id="text15339"
       style="font-style:normal;font-variant:normal;font-weight:normal;font-stretch:normal;font-size:341.333px;font-family:Gurajada;-inkscape-font-specification:'Gurajada, Normal';font-variant-ligatures:normal;font-variant-caps:normal;font-variant-numeric:normal;font-variant-east-asian:normal;white-space:pre;shape-inside:url(#rect15341);fill:#f5cb39;fill-opacity:1;stroke:#000000;stroke-width:1.65183593;stroke-dasharray:none;stroke-opacity:1;stop-color:#000000"><tspan
         x="401.88086"
         y="793.09317"
         id="tspan2404">R</tspan></text>
    <text
       xml:space="preserve"
       style="font-style:normal;font-variant:normal;font-weight:normal;font-stretch:normal;font-size:90.311px;font-family:Gurajada;-inkscape-font-specification:'Gurajada, Normal';font-variant-ligatures:normal;font-variant-caps:normal;font-variant-numeric:normal;font-variant-east-asian:normal;fill:#ffe40e;fill-opacity:1;stroke:none;stroke-width:0.278342;stroke-dasharray:none;stroke-opacity:1;stop-color:#000000"
       x="314.01663"
       y="168.86008"
       id="text18517"><tspan
         sodipodi:role="line"
         id="tspan18515"
         style="stroke-width:0.278342"
         x="314.01663"
         y="168.86008" /></text>
    <path
       id="text18571"
       style="font-style:normal;font-variant:normal;font-weight:normal;font-stretch:normal;font-size:90.311px;font-family:Gurajada;-inkscape-font-specification:'Gurajada, Normal';font-variant-ligatures:normal;font-variant-caps:normal;font-variant-numeric:normal;font-variant-east-asian:normal;fill:#f5cb39;fill-opacity:1;stroke:#000000;stroke-width:0.79374999;stroke-dasharray:none;stroke-opacity:1;stop-color:#000000"
       d="m 124.12662,137.94977 v 3.0758 h 1.60453 c 2.54682,0 4.83821,0.81985 6.87567,2.46008 1.83368,1.6402 2.75062,3.63939 2.75062,5.99719 v 14.45726 c 4.46167,-1.04983 8.44844,-3.01123 11.95498,-5.89174 0.81352,-0.62216 1.56066,-1.2653 2.25663,-1.92531 v -5.41066 c 0,-2.66531 0.81475,-4.97113 2.4447,-6.91888 0.4532,-0.51308 0.93645,-0.94936 1.44549,-1.31807 a 7.2701784,11.065885 0 0 0 -0.0122,-0.049 7.2701784,11.065885 0 0 0 -0.0561,-0.21278 7.2701784,11.065885 0 0 0 -0.0599,-0.20995 7.2701784,11.065885 0 0 0 -0.0617,-0.20806 7.2701784,11.065885 0 0 0 -0.0646,-0.20712 7.2701784,11.065885 0 0 0 -0.0674,-0.20431 7.2701784,11.065885 0 0 0 -0.0702,-0.20241 7.2701784,11.065885 0 0 0 -0.073,-0.1996 7.2701784,11.065885 0 0 0 -0.0758,-0.19771 7.2701784,11.065885 0 0 0 -0.0776,-0.19583 7.2701784,11.065885 0 0 0 -0.0814,-0.19204 7.2701784,11.065885 0 0 0 -0.0833,-0.19019 7.2701784,11.065885 0 0 0 -0.0861,-0.18736 7.2701784,11.065885 0 0 0 -0.0889,-0.18546 7.2701784,11.065885 0 0 0 -0.0907,-0.18171 7.2701784,11.065885 0 0 0 -0.0936,-0.17888 7.2701784,11.065885 0 0 0 -0.0954,-0.17606 7.2701784,11.065885 0 0 0 -0.0982,-0.17322 7.2701784,11.065885 0 0 0 -0.10105,-0.16947 7.2701784,11.065885 0 0 0 -0.10292,-0.16665 7.2701784,11.065885 0 0 0 -0.10478,-0.1638 7.2701784,11.065885 0 0 0 -0.10759,-0.16005 7.2701784,11.065885 0 0 0 -0.10946,-0.15628 7.2701784,11.065885 0 0 0 -0.11135,-0.15348 7.2701784,11.065885 0 0 0 -0.11413,-0.14968 7.2701784,11.065885 0 0 0 -0.043,-0.0546 z m 25.44243,30.20248 a 9.0561004,5.0661066 0 0 1 -3.37373,0.6515 l 3.37373,4.28371 z m -14.21161,10.09826 v 38.73694 c 0,2.25528 -0.91694,4.25447 -2.75062,5.99717 -2.03746,1.64022 -4.32885,2.46008 -6.87567,2.46008 h -2.90406 v 2.76794 0.1544 h 75.18212 l 5.04283,-24.14222 h -3.20907 c -1.93558,5.53572 -5.04263,10.04638 -9.32128,13.5318 -4.27866,3.48546 -8.91392,5.228 -13.90567,5.228 h -19.86537 c -1.93558,0 -3.66725,-0.56321 -5.19535,-1.69087 -1.32434,-1.43519 -1.98625,-2.87113 -1.98625,-4.3063 v -19.85663 z" />
  </g>
</svg>
